<svg xmlns="http://www.w3.org/2000/svg" viewBox="0 0 960 1180" role="img" aria-labelledby="title desc">
  <title id="title">AAC app hero screen</title>
  <desc id="desc">A stylized AAC board screen with sentence bar, tile grid, and communication categories.</desc>
  <defs>
    <linearGradient id="bg" x1="0" y1="0" x2="1" y2="1">
      <stop offset="0%" stop-color="#10213d"/>
      <stop offset="100%" stop-color="#08111f"/>
    </linearGradient>
    <linearGradient id="accent" x1="0" y1="0" x2="1" y2="1">
      <stop offset="0%" stop-color="#6ee7d8"/>
      <stop offset="100%" stop-color="#87a7ff"/>
    </linearGradient>
  </defs>
  <rect width="960" height="1180" rx="48" fill="url(#bg)"/>
  <rect x="52" y="46" width="856" height="1088" rx="34" fill="#0d1730" stroke="rgba(255,255,255,0.12)" stroke-width="2"/>
  <rect x="96" y="94" width="248" height="46" rx="23" fill="rgba(110,231,216,0.14)"/>
  <text x="120" y="123" fill="#6ee7d8" font-family="IBM Plex Sans, Arial, sans-serif" font-size="20" font-weight="700">Offline AAC Board</text>
  <rect x="96" y="174" width="768" height="128" rx="28" fill="#172848" stroke="rgba(255,255,255,0.09)"/>
  <text x="122" y="230" fill="#edf4ff" font-family="Space Grotesk, Arial, sans-serif" font-size="34" font-weight="700">I want a drink please</text>
  <text x="122" y="270" fill="#a8b8d6" font-family="IBM Plex Sans, Arial, sans-serif" font-size="22">Tap tiles to build and speak sentences instantly</text>
  <rect x="96" y="336" width="768" height="676" rx="30" fill="#101c35" stroke="rgba(255,255,255,0.08)"/>
  <g transform="translate(132 372)">
    <rect width="196" height="152" rx="26" fill="rgba(110,231,216,0.18)"/>
    <rect x="224" width="196" height="152" rx="26" fill="rgba(255,203,107,0.16)"/>
    <rect x="448" width="196" height="152" rx="26" fill="rgba(135,167,255,0.16)"/>
    <rect x="672" width="196" height="152" rx="26" fill="rgba(255,143,112,0.16)"/>
    <rect y="184" width="196" height="152" rx="26" fill="rgba(255,255,255,0.05)"/>
    <rect x="224" y="184" width="196" height="152" rx="26" fill="rgba(255,255,255,0.05)"/>
    <rect x="448" y="184" width="196" height="152" rx="26" fill="rgba(255,255,255,0.05)"/>
    <rect x="672" y="184" width="196" height="152" rx="26" fill="rgba(255,255,255,0.05)"/>
    <rect y="368" width="196" height="152" rx="26" fill="rgba(255,255,255,0.05)"/>
    <rect x="224" y="368" width="196" height="152" rx="26" fill="rgba(255,255,255,0.05)"/>
    <rect x="448" y="368" width="196" height="152" rx="26" fill="rgba(255,255,255,0.05)"/>
    <rect x="672" y="368" width="196" height="152" rx="26" fill="rgba(255,255,255,0.05)"/>
    <text x="40" y="72" fill="#edf4ff" font-family="Space Grotesk, Arial, sans-serif" font-size="28" font-weight="700">I</text>
    <text x="264" y="72" fill="#edf4ff" font-family="Space Grotesk, Arial, sans-serif" font-size="28" font-weight="700">want</text>
    <text x="488" y="72" fill="#edf4ff" font-family="Space Grotesk, Arial, sans-serif" font-size="28" font-weight="700">drink</text>
    <text x="712" y="72" fill="#edf4ff" font-family="Space Grotesk, Arial, sans-serif" font-size="28" font-weight="700">please</text>
    <text x="34" y="256" fill="#a8b8d6" font-family="IBM Plex Sans, Arial, sans-serif" font-size="24">food</text>
    <text x="258" y="256" fill="#a8b8d6" font-family="IBM Plex Sans, Arial, sans-serif" font-size="24">home</text>
    <text x="478" y="256" fill="#a8b8d6" font-family="IBM Plex Sans, Arial, sans-serif" font-size="24">school</text>
    <text x="692" y="256" fill="#a8b8d6" font-family="IBM Plex Sans, Arial, sans-serif" font-size="24">feelings</text>
    <text x="18" y="440" fill="#a8b8d6" font-family="IBM Plex Sans, Arial, sans-serif" font-size="24">help</text>
    <text x="244" y="440" fill="#a8b8d6" font-family="IBM Plex Sans, Arial, sans-serif" font-size="24">more</text>
    <text x="470" y="440" fill="#a8b8d6" font-family="IBM Plex Sans, Arial, sans-serif" font-size="24">yes</text>
    <text x="694" y="440" fill="#a8b8d6" font-family="IBM Plex Sans, Arial, sans-serif" font-size="24">no</text>
    <circle cx="98" cy="123" r="30" fill="url(#accent)"/>
    <circle cx="322" cy="123" r="30" fill="url(#accent)"/>
    <circle cx="546" cy="123" r="30" fill="url(#accent)"/>
    <circle cx="770" cy="123" r="30" fill="url(#accent)"/>
    <circle cx="98" cy="307" r="30" fill="url(#accent)"/>
    <circle cx="322" cy="307" r="30" fill="url(#accent)"/>
    <circle cx="546" cy="307" r="30" fill="url(#accent)"/>
    <circle cx="770" cy="307" r="30" fill="url(#accent)"/>
    <circle cx="98" cy="491" r="30" fill="url(#accent)"/>
    <circle cx="322" cy="491" r="30" fill="url(#accent)"/>
    <circle cx="546" cy="491" r="30" fill="url(#accent)"/>
    <circle cx="770" cy="491" r="30" fill="url(#accent)"/>
  </g>
  <rect x="96" y="1042" width="768" height="52" rx="26" fill="rgba(110,231,216,0.16)"/>
  <text x="124" y="1076" fill="#6ee7d8" font-family="IBM Plex Sans, Arial, sans-serif" font-size="22" font-weight="700">Core word placement stays consistent across boards</text>
</svg>
